Coordinates
version=1
nRows=7
nColumns=46
inDegrees=yes

Units are S.I. units (second, meters, Newtons, ...)
Angles are in degrees.

endheader
time	pelvis_tilt	pelvis_list	pelvis_rotation	pelvis_tx	pelvis_ty	pelvis_tz	bb_angle	bb_tx	bb_ty	bb_tz	hip_flexion_r	hip_adduction_r	hip_rotation_r	knee_angle_r	knee_angle_r_beta	ankle_angle_r	subtalar_angle_r	mtp_angle_r	crank_angle_r	hip_flexion_l	hip_adduction_l	hip_rotation_l	knee_angle_l	knee_angle_l_beta	ankle_angle_l	subtalar_angle_l	mtp_angle_l	crank_angle_l	lumbar_extension	lumbar_bending	lumbar_rotation	arm_flex_r	arm_add_r	arm_rot_r	elbow_flex_r	pro_sup_r	wrist_flex_r	wrist_dev_r	arm_flex_l	arm_add_l	arm_rot_l	elbow_flex_l	pro_sup_l	wrist_flex_l	wrist_dev_l
      5.00500000	    -18.74281782	      3.90657295	      0.78220630	      0.16389021	      1.07093599	     -0.21622774	      0.00000000	      0.50000000	      0.00000000	      0.25000000	     40.87578083	     -9.16602643	     -4.28049630	     24.29102247	      0.42395832	    -38.08221384	     -0.16485119	      0.00000000	      0.00000000	     90.18159030	     -1.57882329	      2.08857025	    115.74419777	      2.02011734	     -7.54283398	    -15.00828572	      0.00000000	      0.00000000	    -60.99699171	     -3.31201874	     -8.06056219	     88.51431052	     -9.21215181	     26.33757022	     57.65107181	     42.09771172	      0.00000000	      0.00000000	     83.68744305	    -13.08410516	     15.27646709	     70.08538825	     49.75235317	      0.00000000	      0.00000000
      5.01000000	    -19.32141254	      4.14321571	      1.28556153	      0.16287000	      1.07056509	     -0.21650789	      0.00000000	      0.50000000	      0.00000000	      0.25000000	     41.11062828	     -9.51430034	     -3.94448501	     25.00329230	      0.43638977	    -37.78059526	     -1.22100709	      0.00000000	      0.00000000	     91.51040854	     -0.83844307	      2.10561334	    115.34241658	      2.01310494	     -6.51759601	    -14.69744656	      0.00000000	      0.00000000	    -60.70097946	     -3.18827773	     -8.48830183	     88.57889197	     -9.30334881	     26.05972967	     57.98158435	     42.13590546	      0.00000000	      0.00000000	     83.92865014	    -12.91930858	     15.22093444	     70.39094836	     49.78828137	      0.00000000	      0.00000000
      5.01500000	    -19.83438268	      4.18249259	      1.62099750	      0.16199404	      1.07018369	     -0.21611681	      0.00000000	      0.50000000	      0.00000000	      0.25000000	     41.44614248	     -9.50888777	     -3.56891623	     26.09695342	      0.45547776	    -37.54966705	     -2.72626635	      0.00000000	      0.00000000	     92.64830122	     -0.47521206	      2.31095946	    114.85632800	      2.00462109	     -5.15324168	    -13.63173035	      0.00000000	      0.00000000	    -60.44283600	     -3.09463963	     -8.80703968	     88.40146902	     -9.28594331	     25.53925350	     58.82241530	     42.27372546	      0.00000000	      0.00000000	     83.82743395	    -12.89395339	     14.86966149	     71.12261001	     49.85367367	      0.00000000	      0.00000000
      5.02000000	    -20.08045969	      4.11796240	      2.14144991	      0.16120599	      1.07037926	     -0.21610167	      0.00000000	      0.50000000	      0.00000000	      0.25000000	     41.45423765	     -9.53738046	     -3.26420591	     27.18062439	      0.47439139	    -37.08338933	     -4.05516794	      0.00000000	      0.00000000	     93.32572886	      0.11331211	      2.48920971	    114.13853558	      1.99209325	     -4.05180657	    -13.65010272	      0.00000000	      0.00000000	    -60.43737238	     -2.75873928	     -9.05227620	     88.54569188	     -9.32206261	     25.41367036	     58.94596354	     42.29163505	      0.00000000	      0.00000000	     84.13776583	    -12.76093592	     14.83467799	     71.33444858	     49.87507719	      0.00000000	      0.00000000
      5.02500000	    -20.45177422	      4.17364434	      2.59552166	      0.15997068	      1.06979577	     -0.21589351	      0.00000000	      0.50000000	      0.00000000	      0.25000000	     41.95051060	     -9.59116248	     -2.68825507	     28.75711855	      0.50190640	    -36.85617686	     -5.67541865	      0.00000000	      0.00000000	     94.03548320	      0.68009988	      2.65087155	    113.31328116	      1.97768984	     -2.81445661	    -13.14527654	      0.00000000	      0.00000000	    -60.21023315	     -2.57780338	     -9.41028769	     88.54255675	     -9.36644166	     25.23860078	     59.20561096	     42.33426305	      0.00000000	      0.00000000	     84.32763754	    -12.74049108	     14.79379953	     71.51840915	     49.88852251	      0.00000000	      0.00000000
      5.03000000	    -20.68837891	      4.23844940	      2.95281860	      0.15924629	      1.06960216	     -0.21596577	      0.00000000	      0.50000000	      0.00000000	      0.25000000	     42.37612304	     -9.64886048	     -2.10547857	     30.34883170	      0.52968704	    -36.63022308	     -6.93190512	      0.00000000	      0.00000000	     94.31964125	      1.30516107	      2.77764361	    112.35751471	      1.96100857	     -1.36769140	    -13.01416479	      0.00000000	      0.00000000	    -60.09860191	     -2.40747131	     -9.66429897	     88.60439530	     -9.43244605	     25.14214936	     59.37025618	     42.36148017	      0.00000000	      0.00000000	     84.51407584	    -12.75432955	     14.78275520	     71.65650239	     49.90108712	      0.00000000	      0.00000000
      5.03500000	    -20.91210156	      4.28175883	      3.32040568	      0.15823212	      1.06926737	     -0.21587940	      0.00000000	      0.50000000	      0.00000000	      0.25000000	     42.91085941	     -9.63549071	     -1.36435686	     32.07134187	      0.55975051	    -36.65844646	     -8.18769691	      0.00000000	      0.00000000	     94.45551631	      1.78711366	      2.82334295	    111.20341824	      1.94086579	      0.14541137	    -12.85465125	      0.00000000	      0.00000000	    -59.98478292	     -2.25099338	     -9.89399688	     88.64702959	     -9.52249498	     25.08917201	     59.50952708	     42.38707594	      0.00000000	      0.00000000	     84.67065355	    -12.71707197	     14.75713199	     71.77757414	     49.91039664	      0.00000000	      0.00000000
